<svg xmlns="http://www.w3.org/2000/svg" width="1200" height="420" viewBox="0 0 1200 420" role="img" aria-label="MemoryOS local memory flow">
  <rect width="1200" height="420" fill="#111827"/>
  <text x="70" y="82" fill="#f9fafb" font-family="Menlo, monospace" font-size="34">MemoryOS local memory flow</text>
  <g font-family="Menlo, monospace" font-size="22" text-anchor="middle">
    <rect x="70" y="170" width="185" height="82" rx="8" fill="#0f766e"/><text x="162" y="218" fill="#ecfeff">Session</text>
    <rect x="335" y="170" width="185" height="82" rx="8" fill="#1d4ed8"/><text x="427" y="218" fill="#eff6ff">Curator</text>
    <rect x="600" y="118" width="210" height="82" rx="8" fill="#7c3aed"/><text x="705" y="166" fill="#f5f3ff">Permanent note</text>
    <rect x="600" y="250" width="210" height="58" rx="8" fill="#475569"/><text x="705" y="286" fill="#f8fafc">Draft or skip</text>
    <rect x="890" y="118" width="220" height="82" rx="8" fill="#b45309"/><text x="1000" y="166" fill="#fffbeb">SQLite FTS5 search</text>
  </g>
  <g stroke="#cbd5e1" stroke-width="4" fill="none"><path d="M255 211H335"/><path d="M520 211H560V159H600"/><path d="M520 211H560V279H600"/><path d="M810 159H890"/></g>
  <g fill="#cbd5e1"><path d="M324 202l16 9-16 9z"/><path d="M589 150l16 9-16 9z"/><path d="M589 270l16 9-16 9z"/><path d="M879 150l16 9-16 9z"/></g>
  <text x="70" y="365" fill="#94a3b8" font-family="Menlo, monospace" font-size="18">Markdown is the source of truth. SQLite indexes it locally.</text>
</svg>
